<mxfile host="app.diagrams.net" agent="Mozilla/5.0 (Windows NT 10.0; Win64; x64) AppleWebKit/537.36 (KHTML, like Gecko) Chrome/136.0.0.0 Safari/537.36 Edg/136.0.0.0" version="27.0.3">
  <diagram id="R2lEEEUBdFMjLlhIrx00" name="Page-1">
    <mxGraphModel dx="591" dy="306" grid="1" gridSize="10" guides="1" tooltips="1" connect="1" arrows="1" fold="1" page="1" pageScale="1" pageWidth="850" pageHeight="1100" math="0" shadow="0" extFonts="Permanent Marker^https://fonts.googleapis.com/css?family=Permanent+Marker">
      <root>
        <mxCell id="0" />
        <mxCell id="1" parent="0" />
        <mxCell id="xZrqqmC3d0ME-sPM2zCy-38" style="edgeStyle=orthogonalEdgeStyle;shape=connector;rounded=0;orthogonalLoop=1;jettySize=auto;html=1;exitX=0.5;exitY=0;exitDx=0;exitDy=0;entryX=0.5;entryY=1;entryDx=0;entryDy=0;strokeColor=default;align=center;verticalAlign=middle;fontFamily=Helvetica;fontSize=11;fontColor=default;labelBackgroundColor=default;startFill=0;endArrow=none;" parent="1" source="xZrqqmC3d0ME-sPM2zCy-2" target="xZrqqmC3d0ME-sPM2zCy-35" edge="1">
          <mxGeometry relative="1" as="geometry" />
        </mxCell>
        <mxCell id="xZrqqmC3d0ME-sPM2zCy-2" value="&lt;font style=&quot;font-size: 10px;&quot;&gt;Asta&lt;/font&gt;" style="whiteSpace=wrap;html=1;align=center;" parent="1" vertex="1">
          <mxGeometry x="400" y="190" width="120" height="40" as="geometry" />
        </mxCell>
        <mxCell id="xZrqqmC3d0ME-sPM2zCy-3" value="&lt;font style=&quot;font-size: 10px;&quot;&gt;Asta&amp;nbsp;&lt;br&gt;Aperta&lt;/font&gt;" style="whiteSpace=wrap;html=1;align=center;" parent="1" vertex="1">
          <mxGeometry x="310" y="350" width="100" height="40" as="geometry" />
        </mxCell>
        <mxCell id="xZrqqmC3d0ME-sPM2zCy-4" value="&lt;font style=&quot;font-size: 10px;&quot;&gt;Nuova&lt;br&gt;Asta&lt;/font&gt;" style="whiteSpace=wrap;html=1;align=center;" parent="1" vertex="1">
          <mxGeometry x="467.5" y="350" width="100" height="40" as="geometry" />
        </mxCell>
        <mxCell id="xZrqqmC3d0ME-sPM2zCy-21" style="shape=connector;rounded=0;orthogonalLoop=1;jettySize=auto;html=1;exitX=0;exitY=0;exitDx=0;exitDy=10.5;exitPerimeter=0;entryX=0.5;entryY=0;entryDx=0;entryDy=0;strokeColor=default;align=center;verticalAlign=middle;fontFamily=Helvetica;fontSize=11;fontColor=default;labelBackgroundColor=default;endArrow=none;startFill=0;edgeStyle=orthogonalEdgeStyle;" parent="1" source="xZrqqmC3d0ME-sPM2zCy-19" target="xZrqqmC3d0ME-sPM2zCy-3" edge="1">
          <mxGeometry relative="1" as="geometry">
            <Array as="points">
              <mxPoint x="450" y="290" />
              <mxPoint x="450" y="300" />
              <mxPoint x="360" y="300" />
            </Array>
          </mxGeometry>
        </mxCell>
        <mxCell id="xZrqqmC3d0ME-sPM2zCy-23" style="edgeStyle=orthogonalEdgeStyle;shape=connector;rounded=0;orthogonalLoop=1;jettySize=auto;html=1;exitX=0;exitY=0.5;exitDx=0;exitDy=0;exitPerimeter=0;strokeColor=default;align=center;verticalAlign=middle;fontFamily=Helvetica;fontSize=11;fontColor=default;labelBackgroundColor=default;startFill=0;endArrow=none;" parent="1" source="xZrqqmC3d0ME-sPM2zCy-19" edge="1">
          <mxGeometry relative="1" as="geometry">
            <mxPoint x="449.7586206896551" y="300" as="targetPoint" />
          </mxGeometry>
        </mxCell>
        <mxCell id="xZrqqmC3d0ME-sPM2zCy-59" style="edgeStyle=orthogonalEdgeStyle;shape=connector;rounded=0;orthogonalLoop=1;jettySize=auto;html=1;exitX=0;exitY=0.5;exitDx=0;exitDy=0;exitPerimeter=0;strokeColor=default;align=center;verticalAlign=middle;fontFamily=Helvetica;fontSize=11;fontColor=default;labelBackgroundColor=default;startFill=0;endArrow=none;" parent="1" source="xZrqqmC3d0ME-sPM2zCy-19" edge="1">
          <mxGeometry relative="1" as="geometry">
            <mxPoint x="449.9047619047618" y="300" as="targetPoint" />
          </mxGeometry>
        </mxCell>
        <mxCell id="xZrqqmC3d0ME-sPM2zCy-19" value="" style="html=1;shadow=0;dashed=0;align=center;verticalAlign=middle;shape=mxgraph.arrows2.arrow;dy=0.6;dx=40;direction=north;notch=0;fontFamily=Helvetica;fontSize=11;fontColor=default;labelBackgroundColor=default;fillColor=#000000;" parent="1" vertex="1">
          <mxGeometry x="432.5" y="230" width="35" height="70" as="geometry" />
        </mxCell>
        <mxCell id="xZrqqmC3d0ME-sPM2zCy-24" style="edgeStyle=orthogonalEdgeStyle;shape=connector;rounded=0;orthogonalLoop=1;jettySize=auto;html=1;exitX=0;exitY=0.5;exitDx=0;exitDy=0;exitPerimeter=0;entryX=0.565;entryY=-0.021;entryDx=0;entryDy=0;entryPerimeter=0;strokeColor=default;align=center;verticalAlign=middle;fontFamily=Helvetica;fontSize=11;fontColor=default;labelBackgroundColor=default;startFill=0;endArrow=none;" parent="1" source="xZrqqmC3d0ME-sPM2zCy-19" target="xZrqqmC3d0ME-sPM2zCy-4" edge="1">
          <mxGeometry relative="1" as="geometry">
            <Array as="points">
              <mxPoint x="450" y="300" />
              <mxPoint x="524" y="300" />
            </Array>
          </mxGeometry>
        </mxCell>
        <mxCell id="xZrqqmC3d0ME-sPM2zCy-25" value="&lt;font&gt;Categoria&lt;/font&gt;" style="text;html=1;align=center;verticalAlign=middle;resizable=0;points=[];autosize=1;strokeColor=none;fillColor=none;fontFamily=Helvetica;fontSize=8;fontColor=default;labelBackgroundColor=default;" parent="1" vertex="1">
          <mxGeometry x="375" y="128" width="60" height="20" as="geometry" />
        </mxCell>
        <mxCell id="xZrqqmC3d0ME-sPM2zCy-26" value="Durata" style="text;html=1;align=center;verticalAlign=middle;resizable=0;points=[];autosize=1;strokeColor=none;fillColor=none;fontFamily=Helvetica;fontSize=8;fontColor=default;labelBackgroundColor=default;" parent="1" vertex="1">
          <mxGeometry x="435" y="128" width="50" height="20" as="geometry" />
        </mxCell>
        <mxCell id="xZrqqmC3d0ME-sPM2zCy-27" value="Data Inizio" style="text;html=1;align=center;verticalAlign=middle;resizable=0;points=[];autosize=1;strokeColor=none;fillColor=none;fontFamily=Helvetica;fontSize=8;fontColor=default;labelBackgroundColor=default;" parent="1" vertex="1">
          <mxGeometry x="485" y="128" width="60" height="20" as="geometry" />
        </mxCell>
        <mxCell id="xZrqqmC3d0ME-sPM2zCy-28" value="" style="ellipse;whiteSpace=wrap;html=1;fontFamily=Helvetica;fontSize=11;fontColor=default;labelBackgroundColor=default;" parent="1" vertex="1">
          <mxGeometry x="400" y="148" width="10" height="12" as="geometry" />
        </mxCell>
        <mxCell id="xZrqqmC3d0ME-sPM2zCy-29" style="edgeStyle=orthogonalEdgeStyle;shape=connector;rounded=0;orthogonalLoop=1;jettySize=auto;html=1;exitX=0.5;exitY=1;exitDx=0;exitDy=0;entryX=0.039;entryY=0.029;entryDx=0;entryDy=0;entryPerimeter=0;strokeColor=default;align=center;verticalAlign=middle;fontFamily=Helvetica;fontSize=11;fontColor=default;labelBackgroundColor=default;startFill=0;endArrow=none;" parent="1" source="xZrqqmC3d0ME-sPM2zCy-28" target="xZrqqmC3d0ME-sPM2zCy-2" edge="1">
          <mxGeometry relative="1" as="geometry" />
        </mxCell>
        <mxCell id="xZrqqmC3d0ME-sPM2zCy-35" value="" style="ellipse;whiteSpace=wrap;html=1;fontFamily=Helvetica;fontSize=11;fontColor=default;labelBackgroundColor=default;" parent="1" vertex="1">
          <mxGeometry x="455" y="148" width="10" height="12" as="geometry" />
        </mxCell>
        <mxCell id="xZrqqmC3d0ME-sPM2zCy-39" value="" style="ellipse;whiteSpace=wrap;html=1;fontFamily=Helvetica;fontSize=11;fontColor=default;labelBackgroundColor=default;" parent="1" vertex="1">
          <mxGeometry x="500" y="148" width="10" height="12" as="geometry" />
        </mxCell>
        <mxCell id="xZrqqmC3d0ME-sPM2zCy-43" style="edgeStyle=orthogonalEdgeStyle;shape=connector;rounded=0;orthogonalLoop=1;jettySize=auto;html=1;exitX=0.5;exitY=1;exitDx=0;exitDy=0;entryX=0.874;entryY=0.005;entryDx=0;entryDy=0;entryPerimeter=0;strokeColor=default;align=center;verticalAlign=middle;fontFamily=Helvetica;fontSize=11;fontColor=default;labelBackgroundColor=default;startFill=0;endArrow=none;" parent="1" source="xZrqqmC3d0ME-sPM2zCy-39" target="xZrqqmC3d0ME-sPM2zCy-2" edge="1">
          <mxGeometry relative="1" as="geometry" />
        </mxCell>
        <mxCell id="xZrqqmC3d0ME-sPM2zCy-47" value="" style="ellipse;whiteSpace=wrap;html=1;fontFamily=Helvetica;fontSize=11;fontColor=default;labelBackgroundColor=default;" parent="1" vertex="1">
          <mxGeometry x="400" y="430" width="10" height="12" as="geometry" />
        </mxCell>
        <mxCell id="xZrqqmC3d0ME-sPM2zCy-48" value="" style="ellipse;whiteSpace=wrap;html=1;fontFamily=Helvetica;fontSize=11;fontColor=default;labelBackgroundColor=default;" parent="1" vertex="1">
          <mxGeometry x="320" y="430" width="10" height="12" as="geometry" />
        </mxCell>
        <mxCell id="xZrqqmC3d0ME-sPM2zCy-49" value="" style="ellipse;whiteSpace=wrap;html=1;fontFamily=Helvetica;fontSize=11;fontColor=default;labelBackgroundColor=default;" parent="1" vertex="1">
          <mxGeometry x="350" y="430" width="10" height="12" as="geometry" />
        </mxCell>
        <mxCell id="xZrqqmC3d0ME-sPM2zCy-53" style="edgeStyle=orthogonalEdgeStyle;shape=connector;rounded=0;orthogonalLoop=1;jettySize=auto;html=1;exitX=0.5;exitY=0;exitDx=0;exitDy=0;entryX=0.148;entryY=1.044;entryDx=0;entryDy=0;entryPerimeter=0;strokeColor=default;align=center;verticalAlign=middle;fontFamily=Helvetica;fontSize=11;fontColor=default;labelBackgroundColor=default;startFill=0;endArrow=none;" parent="1" source="xZrqqmC3d0ME-sPM2zCy-48" target="xZrqqmC3d0ME-sPM2zCy-3" edge="1">
          <mxGeometry relative="1" as="geometry" />
        </mxCell>
        <mxCell id="xZrqqmC3d0ME-sPM2zCy-54" style="edgeStyle=orthogonalEdgeStyle;shape=connector;rounded=0;orthogonalLoop=1;jettySize=auto;html=1;exitX=0.5;exitY=0;exitDx=0;exitDy=0;entryX=0.449;entryY=1;entryDx=0;entryDy=0;entryPerimeter=0;strokeColor=default;align=center;verticalAlign=middle;fontFamily=Helvetica;fontSize=11;fontColor=default;labelBackgroundColor=default;startFill=0;endArrow=none;" parent="1" source="xZrqqmC3d0ME-sPM2zCy-49" target="xZrqqmC3d0ME-sPM2zCy-3" edge="1">
          <mxGeometry relative="1" as="geometry" />
        </mxCell>
        <mxCell id="xZrqqmC3d0ME-sPM2zCy-55" style="edgeStyle=orthogonalEdgeStyle;shape=connector;rounded=0;orthogonalLoop=1;jettySize=auto;html=1;exitX=0.5;exitY=0;exitDx=0;exitDy=0;entryX=0.654;entryY=1.044;entryDx=0;entryDy=0;entryPerimeter=0;strokeColor=default;align=center;verticalAlign=middle;fontFamily=Helvetica;fontSize=11;fontColor=default;labelBackgroundColor=default;startFill=0;endArrow=none;" parent="1" source="xZrqqmC3d0ME-sPM2zCy-47" edge="1">
          <mxGeometry relative="1" as="geometry">
            <mxPoint x="395.4000000000001" y="391.76" as="targetPoint" />
            <Array as="points">
              <mxPoint x="405" y="392" />
            </Array>
          </mxGeometry>
        </mxCell>
        <mxCell id="xZrqqmC3d0ME-sPM2zCy-56" value="&lt;font&gt;numero&lt;br&gt;offerte&lt;/font&gt;" style="text;html=1;align=center;verticalAlign=middle;resizable=0;points=[];autosize=1;strokeColor=none;fillColor=none;fontFamily=Helvetica;fontSize=8;fontColor=default;labelBackgroundColor=default;" parent="1" vertex="1">
          <mxGeometry x="290" y="442" width="50" height="30" as="geometry" />
        </mxCell>
        <mxCell id="xZrqqmC3d0ME-sPM2zCy-57" value="&lt;span style=&quot;background-color: light-dark(#ffffff, var(--ge-dark-color, #121212)); color: light-dark(rgb(0, 0, 0), rgb(255, 255, 255));&quot;&gt;&lt;font style=&quot;font-size: 8px;&quot;&gt;offerta&lt;/font&gt;&lt;/span&gt;&lt;div&gt;&lt;font style=&quot;font-size: 8px;&quot;&gt;massima&lt;/font&gt;&lt;/div&gt;" style="text;html=1;align=center;verticalAlign=middle;resizable=0;points=[];autosize=1;strokeColor=none;fillColor=none;fontFamily=Helvetica;fontSize=11;fontColor=default;labelBackgroundColor=default;" parent="1" vertex="1">
          <mxGeometry x="330" y="437" width="60" height="40" as="geometry" />
        </mxCell>
        <mxCell id="xZrqqmC3d0ME-sPM2zCy-58" value="&lt;font style=&quot;font-size: 8px;&quot;&gt;tempo&lt;br&gt;mancante&lt;/font&gt;" style="text;html=1;align=center;verticalAlign=middle;resizable=0;points=[];autosize=1;strokeColor=none;fillColor=none;fontFamily=Helvetica;fontSize=11;fontColor=default;labelBackgroundColor=default;" parent="1" vertex="1">
          <mxGeometry x="385" y="437" width="60" height="40" as="geometry" />
        </mxCell>
      </root>
    </mxGraphModel>
  </diagram>
</mxfile>
